<?xml version="1.0" encoding="utf-8"?>
<!-- Generator: Adobe Illustrator 24.2.3, SVG Export Plug-In . SVG Version: 6.00 Build 0)  -->
<svg version="1.1" id="Layer_1" xmlns="http://www.w3.org/2000/svg" xmlns:xlink="http://www.w3.org/1999/xlink" x="0px" y="0px"
	 viewBox="0 0 24 24" style="enable-background:new 0 0 24 24;" xml:space="preserve">
<style type="text/css">
	.st0{fill:none;}
</style>
<path class="st0" d="M0,0h24v24H0V0z"/>
<path d="M15.5,5l1.7,2.6L17.5,8H21v3h-1.3c-0.6-1-1.8-1.3-2.7-0.7c-0.3,0.2-0.6,0.4-0.7,0.7H13V5H15.5 M16,4h-4v8h5c0-0.6,0.4-1,1-1
	s1,0.4,1,1h2c0.6,0,1-0.4,1-1V8c0-0.6-0.4-1-1-1h-3L16,4z"/>
<path d="M12,8v3H7.7C7.2,10,6,9.7,5,10.3c-0.3,0.2-0.6,0.4-0.7,0.7H3V8H12 M13,7H2v4c0,0.6,0.4,1,1,1h2c0-0.6,0.4-1,1-1s1,0.4,1,1h6
	V7z"/>
<path d="M21,19h-5l-2,1h-3l-2-1H3v1h2c0,0.6,0.4,1,1,1s1-0.4,1-1h2l2,1h3l2-1h1c0,0.6,0.4,1,1,1s1-0.4,1-1h2V19z"/>
<polygon points="12.5,16 12.5,14 11.5,14 11.5,16 10.5,16 12,18 13.5,16 "/>
</svg>
