<?xml version="1.0" encoding="utf-8"?>
<!-- Generator: Adobe Illustrator 24.2.3, SVG Export Plug-In . SVG Version: 6.00 Build 0)  -->
<svg version="1.1" id="Layer_1" xmlns="http://www.w3.org/2000/svg" xmlns:xlink="http://www.w3.org/1999/xlink" x="0px" y="0px"
	 viewBox="0 0 24 24" style="enable-background:new 0 0 24 24;" xml:space="preserve">
<style type="text/css">
	.st0{fill:none;}
</style>
<path class="st0" d="M0,0h24v24H0V0z"/>
<path d="M14,3V2H8v1h1v1H8v7v1v3.8l-3.1,3.1l-0.7-0.7l-0.7,0.7L7,22.4l0.7-0.7L7,21l5-5v-4h2V4h-1V3H14z M11,15.6l-4.7,4.6l-0.7-0.7
	l3.1-3.1L9,16.2V12h2V15.6z M13,11h-1H9V5h4V11z M10,4V3h2v1H10z"/>
</svg>
