<?xml version="1.0" encoding="utf-8"?>
<!-- Generator: Adobe Illustrator 24.2.3, SVG Export Plug-In . SVG Version: 6.00 Build 0)  -->
<svg version="1.1" id="Layer_1" xmlns="http://www.w3.org/2000/svg" xmlns:xlink="http://www.w3.org/1999/xlink" x="0px" y="0px"
	 viewBox="0 0 24 24" style="enable-background:new 0 0 24 24;" xml:space="preserve">
<style type="text/css">
	.st0{fill:none;}
</style>
<path class="st0" d="M0,0h24v24H0V0z"/>
<path d="M11,3v1h-1v8h2v4l5,5l-0.7,0.7l0.7,0.7l3.5-3.5l-0.7-0.7l-0.7,0.7L16,15.8V12v-1V4h-1V3h1V2h-6v1H11z M13,12h2v4.2l0.3,0.3
	l3.1,3.1l-0.7,0.7L13,15.6V12z M11,5h4v6h-3h-1V5z M12,4V3h2v1H12z"/>
</svg>
