<?xml version="1.0" encoding="utf-8"?>
<!-- Generator: Adobe Illustrator 24.2.3, SVG Export Plug-In . SVG Version: 6.00 Build 0)  -->
<svg version="1.1" id="Layer_1" xmlns="http://www.w3.org/2000/svg" xmlns:xlink="http://www.w3.org/1999/xlink" x="0px" y="0px"
	 viewBox="0 0 24 24" style="enable-background:new 0 0 24 24;" xml:space="preserve">
<style type="text/css">
	.st0{fill:none;}
</style>
<path class="st0" d="M0,0h24v24H0V0z"/>
<polygon points="20.2,8.4 19.7,8.9 19.7,10.7 17.9,10.7 17.4,11.2 "/>
<path d="M19.2,10.1v0.1h-0.1L19.2,10.1 M20.2,7.7l-3.5,3.5l0.7,0.7l0.7-0.7h1.4l0.7,0.7l0.7-0.7l-0.7-0.7V9.1l0.7-0.7L20.2,7.7z"/>
<rect x="3.4" y="14.5" transform="matrix(0.5 -0.866 0.866 0.5 -9.3203 13.7708)" width="7.7" height="1"/>
<path d="M8,10.7l-0.7,1.1l-0.1-0.2l-0.3-0.9c-0.2-0.5-0.8-0.7-1.3-0.5C5.2,10.3,5,10.6,5,11c0,0.1,0,0.2,0.1,0.4l0.3,0.9l0,0
	l0.7,1.8l-0.6,1.1l-1.3-3.5c-0.4-1,0.1-2.2,1.2-2.6C5.5,9,5.8,9,6,9c0.8,0,1.6,0.5,1.9,1.3L8,10.7z"/>
<path d="M13.4,14.5L13.4,14.5l-1,4l0,0c-0.2,1.1-1.2,1.8-2.3,1.6c-1.1-0.2-1.8-1.2-1.6-2.3c0-0.1,0-0.2,0.1-0.3l0,0l0.2-0.8L8,16.9
	l0,0H7.9l0.7-1.2h0.2l0,0l1.4-0.4l-0.4,1.4l-0.2,1c0,0.1,0,0.2,0,0.2c0,0.6,0.4,1,1,1c0.5,0,0.9-0.3,1-0.8l0.2-1l0.5-2.1l0.2-1
	c0-0.1,0-0.2,0-0.2c0-0.6-0.4-1-1-1c-0.1,0-0.2,0-0.2,0l-1,0.2l0,0L10,13.3l0.7-1.2L11,12l0,0c1.1-0.3,2.2,0.4,2.4,1.5
	C13.5,13.8,13.5,14.1,13.4,14.5L13.4,14.5z"/>
<path d="M5,5c0.6,0,1,0.4,1,1S5.6,7,5,7S4,6.6,4,6S4.4,5,5,5 M5,4C3.9,4,3,4.9,3,6s0.9,2,2,2s2-0.9,2-2S6.1,4,5,4z"/>
<g id="Airbag">
	<path d="M16.7,14c0.1,0,0.2,0,0.3,0c0.8,0.2,1.2,1.3,0.9,2.3c-0.2,0.9-1,1.6-1.7,1.6c-0.1,0-0.2,0-0.3,0c-0.8-0.2-1.2-1.3-0.9-2.3
		C15.3,14.7,16,14,16.7,14 M16.7,13c-1.2,0-2.3,0.9-2.6,2.3c-0.4,1.6,0.3,3.2,1.6,3.5c0.2,0,0.4,0.1,0.5,0.1c1.2,0,2.3-0.9,2.6-2.3
		c0.4-1.6-0.3-3.2-1.6-3.5C17.1,13.1,16.9,13,16.7,13L16.7,13z"/>
</g>
</svg>
