<?xml version="1.0" encoding="utf-8"?>
<!-- Generator: Adobe Illustrator 24.2.3, SVG Export Plug-In . SVG Version: 6.00 Build 0)  -->
<svg version="1.1" id="Layer_1" xmlns="http://www.w3.org/2000/svg" xmlns:xlink="http://www.w3.org/1999/xlink" x="0px" y="0px"
	 viewBox="0 0 24 24" style="enable-background:new 0 0 24 24;" xml:space="preserve">
<style type="text/css">
	.st0{fill:none;}
</style>
<path class="st0" d="M0,0h24v24H0V0z"/>
<polygon points="20.2,9.4 19.7,9.9 19.7,11.7 17.9,11.7 17.4,12.2 "/>
<path d="M19.2,11.1v0.1h-0.1L19.2,11.1 M20.2,8.7l-3.5,3.5l0.7,0.7l0.7-0.7h1.4l0.7,0.7l0.7-0.7l-0.7-0.7v-1.4l0.7-0.7L20.2,8.7z"/>
<path d="M4.4,10.4L4.4,10.4c-0.2,0.3-0.3,0.6-0.4,0.9C2.7,10.8,1.8,9.5,2,8C1.8,6.4,2.8,5,4.3,4.5C2.6,5.5,3,8.3,3,8.3
	C3,9.3,3.5,10.1,4.4,10.4z"/>
<path d="M18,8c0,2.2-3.5,3.9-7.8,4l-0.4-1H10c4,0,7-1.6,7-3s-3-3-7-3C9.4,5,8.8,5,8.2,5c-0.4-0.5-1-0.8-1.6-0.9C7.7,4,8.8,4,10,4
	C14.4,4,18,5.8,18,8z"/>
<rect x="4.4" y="15.4" transform="matrix(0.5 -0.866 0.866 0.5 -9.6233 15.1486)" width="7.7" height="1"/>
<path d="M16.3,18.1L16.3,18.1l-1.9-3.9l-0.1-0.1C14,13.4,13.3,13,12.5,13c-0.2,0-0.3,0-0.5,0.1h-0.1l-0.3,0.1l-0.7,1.2
	c0.1,0,1.5-0.4,1.6-0.4c0.4,0,0.7,0.2,0.9,0.5l0.1,0.1l1.9,3.8v0.1c0.1,0.1,0.1,0.3,0.1,0.4c0,0.6-0.4,1-1,1c-0.4,0-0.7-0.2-0.9-0.5
	l-0.1-0.1l-1.2-2.5L12,16.2l-0.8,0.2l-0.3,0.1l-1.4,0.3L8.9,18H9h0.1l2.3-0.6l1.2,2.5l0.1,0.1c0.5,1,1.7,1.4,2.7,0.9
	c0.7-0.4,1.1-1.1,1.1-1.9C16.5,18.7,16.4,18.4,16.3,18.1z"/>
<path d="M7.1,15l-1-2.6v-0.1C6,12.2,6,12.1,6,12c0-0.6,0.4-1,1-1c0.4,0,0.8,0.2,0.9,0.6l0.5,1.2l0,0L9,11.7l-0.1-0.3v-0.1
	c-0.4-1-1.5-1.6-2.5-1.2C5.5,10.3,5,11.1,5,12c0,0.2,0,0.5,0.1,0.7v0.1l1.3,3.4L7.1,15z"/>
<path d="M6,6c0.6,0,1,0.4,1,1S6.6,8,6,8S5,7.6,5,7S5.4,6,6,6 M6,5C4.9,5,4,5.9,4,7s0.9,2,2,2s2-0.9,2-2S7.1,5,6,5z"/>
</svg>
