<?xml version="1.0" encoding="utf-8"?>
<!-- Generator: Adobe Illustrator 24.2.3, SVG Export Plug-In . SVG Version: 6.00 Build 0)  -->
<svg version="1.1" id="Layer_1" xmlns="http://www.w3.org/2000/svg" xmlns:xlink="http://www.w3.org/1999/xlink" x="0px" y="0px"
	 viewBox="0 0 24 24" style="enable-background:new 0 0 24 24;" xml:space="preserve">
<style type="text/css">
	.st0{fill:none;}
</style>
<path class="st0" d="M0,0h24v24H0V0z"/>
<path d="M14.5,7l2.5,3.6l0.3,0.4H20V9.4l1,1v5.2l-1,1V15h-3v4h-6.5l-2.7-3.6L7.5,15H5V9h3V7H14.5 M15,6H7v2H4v8h3l3,4h8v-4h1v2h1
	l2-2v-6l-2-2h-1v2h-1.1L15,6z"/>
<polygon points="7,4 7,5 10.5,5 10.5,6 11.5,6 11.5,5 15,5 15,4 "/>
<polygon points="2,16 3,16 3,12.5 4,12.5 4,11.5 3,11.5 3,8 2,8 "/>
<rect x="7.5" y="10" width="1" height="4"/>
<rect x="9" y="10" width="2" height="4"/>
<rect x="11.5" y="10" width="1" height="4"/>
<rect x="14.5" y="10" width="1" height="4"/>
<rect x="13.2" y="10" width="0.5" height="4"/>
</svg>
