<?xml version="1.0" encoding="utf-8"?>
<!-- Generator: Adobe Illustrator 24.2.3, SVG Export Plug-In . SVG Version: 6.00 Build 0)  -->
<svg version="1.1" id="Layer_1" xmlns="http://www.w3.org/2000/svg" xmlns:xlink="http://www.w3.org/1999/xlink" x="0px" y="0px"
	 viewBox="0 0 24 24" style="enable-background:new 0 0 24 24;" xml:space="preserve">
<style type="text/css">
	.st0{fill:none;}
</style>
<path class="st0" d="M0,0h24v24H0V0z"/>
<polygon points="9.5,14.8 11,16.2 11.7,15.5 10.2,14.1 "/>
<rect x="11.5" y="12.7" transform="matrix(0.7071 -0.7071 0.7071 0.7071 -6.1887 12.5191)" width="1" height="2"/>
<path d="M20.7,3.1L20,2.4l-0.7,0.7l-0.7-0.7l0.7-0.7L18.6,1l-0.7,0.7L17.2,1l-3.5,3.5l0.6,0.6l-1.3,1.3l0.4,3.9l-0.5,0.5h-2.1
	l-2.8,2.8v2.1l-1.1,1.1l-0.5-0.5L3,19.6l3.2,3.2l3.2-3.2L8.8,19L9.9,18H12l2.8-2.8V13l1.6-1.6l-0.4-3.2l0.6-0.6l0.5,0.5l3.5-3.5
	L20,3.8L20.7,3.1z M4.4,19.6l1.8-1.8l1.8,1.8l-1.8,1.8L4.4,19.6z M8.1,18.3l-0.7-0.7l1.1-1.1l0.7,0.7L8.1,18.3z M13.9,14.8L11.6,17
	h-1.3l-1.5-1.5v-1.3l2.2-2.2h1.9l0.4,0.3l0.5,0.5V14.8z M15.4,11.1L14.5,12l-0.7-0.7l0.5-0.5l-0.4-3.9l1-1L16,6.9l-1,1L15.4,11.1z
	 M17.2,6.7L15,4.5l2.1-2.1l2.1,2.1L17.2,6.7z"/>
</svg>
