<?xml version="1.0" encoding="utf-8"?>
<!-- Generator: Adobe Illustrator 24.2.3, SVG Export Plug-In . SVG Version: 6.00 Build 0)  -->
<svg version="1.1" id="Layer_1" xmlns="http://www.w3.org/2000/svg" xmlns:xlink="http://www.w3.org/1999/xlink" x="0px" y="0px"
	 viewBox="0 0 24 24" style="enable-background:new 0 0 24 24;" xml:space="preserve">
<style type="text/css">
	.st0{fill:none;}
	.st1{fill:none;stroke:#000000;stroke-miterlimit:10;}
</style>
<path class="st0" d="M0,0h24v24H0V0z"/>
<polygon points="17,17 17,19 12.5,19 12.5,6 11.5,6 11.5,19 7,19 7,17 5,17 5,22 7,22 7,20 17,20 17,22 19,22 19,17 "/>
<polygon points="10,4 7,4 7,2 5,2 5,7 7,7 7,5 10,5 "/>
<polygon points="17,2 17,4 14,4 14,5 17,5 17,7 19,7 19,2 "/>
<rect x="10.6" y="3.3" transform="matrix(0.7071 -0.7071 0.7071 0.7071 0.1878 9.8649)" class="st1" width="2.8" height="2.8"/>
</svg>
