<?xml version="1.0" encoding="utf-8"?>
<!-- Generator: Adobe Illustrator 24.2.3, SVG Export Plug-In . SVG Version: 6.00 Build 0)  -->
<svg version="1.1" id="Layer_1" xmlns="http://www.w3.org/2000/svg" xmlns:xlink="http://www.w3.org/1999/xlink" x="0px" y="0px"
	 viewBox="0 0 24 24" style="enable-background:new 0 0 24 24;" xml:space="preserve">
<style type="text/css">
	.st0{fill:none;}
</style>
<path class="st0" d="M0,0h24v24H0V0z"/>
<polygon points="17,17 17,19 12.5,19 12.5,15 11.5,15 11.5,19 7,19 7,17 5,17 5,22 7,22 7,20 17,20 17,22 19,22 19,17 "/>
<polygon points="17,2 17,4 7,4 7,2 5,2 5,7 7,7 7,5 11.5,5 11.5,9 12.5,9 12.5,5 17,5 17,7 19,7 19,5 19,4 19,2 "/>
<rect x="8" y="10" width="1" height="4"/>
<rect x="9.5" y="10" width="2" height="4"/>
<rect x="12" y="10" width="1" height="4"/>
<rect x="15" y="10" width="1" height="4"/>
<rect x="13.8" y="10" width="0.5" height="4"/>
</svg>
