<?xml version="1.0" encoding="utf-8"?>
<!-- Generator: Adobe Illustrator 24.2.3, SVG Export Plug-In . SVG Version: 6.00 Build 0)  -->
<svg version="1.1" id="Layer_1" xmlns="http://www.w3.org/2000/svg" xmlns:xlink="http://www.w3.org/1999/xlink" x="0px" y="0px"
	 viewBox="0 0 24 24" style="enable-background:new 0 0 24 24;" xml:space="preserve">
<style type="text/css">
	.st0{fill:none;}
</style>
<path class="st0" d="M0,0h24v24H0V0z"/>
<path d="M22,11.5L19,9l-2,1.5L15,9l-2,1.5h-3v-3C10,7.2,9.8,7,9.5,7H3C2.4,7,2,7.4,2,8v8c0,0.6,0.4,1,1,1h6c0.6,0,1-0.4,1-1v-2h10
	L22,11.5z M9,16H3V8h6v2.5V14V16z M10,13v-1.5h3.3l0.3-0.2l1.4-1l1.4,1l0.6,0.5l0.6-0.5l1.4-1l1.6,1.4L19.5,13H10z"/>
<rect x="4" y="9.5" width="1" height="5"/>
</svg>
