<?xml version="1.0" encoding="utf-8"?>
<!-- Generator: Adobe Illustrator 24.2.3, SVG Export Plug-In . SVG Version: 6.00 Build 0)  -->
<svg version="1.1" id="Layer_1" xmlns="http://www.w3.org/2000/svg" xmlns:xlink="http://www.w3.org/1999/xlink" x="0px" y="0px"
	 viewBox="0 0 24 24" style="enable-background:new 0 0 24 24;" xml:space="preserve">
<style type="text/css">
	.st0{fill:none;}
</style>
<path class="st0" d="M0,0h24v24H0V0z"/>
<path d="M17,4c1.7,0,3,1.3,3,3s-1.3,3-3,3s-3-1.3-3-3S15.3,4,17,4 M17,3c-2.2,0-4,1.8-4,4s1.8,4,4,4s4-1.8,4-4S19.2,3,17,3z"/>
<rect x="3.4" y="15.5" transform="matrix(0.5 -0.866 0.866 0.5 -10.1863 14.2708)" width="7.7" height="1"/>
<path d="M15.3,18.1L15.3,18.1l-1.9-3.9l-0.1-0.1c-0.3-0.7-1-1.1-1.8-1.1c-0.2,0-0.3,0-0.5,0.1h-0.1l-0.3,0.1l-0.7,1.2
	c0.1,0,1.5-0.4,1.6-0.4c0.4,0,0.7,0.2,0.9,0.5l0.1,0.1l1.9,3.8v0.1c0.1,0.1,0.1,0.3,0.1,0.4c0,0.6-0.4,1-1,1c-0.4,0-0.7-0.2-0.9-0.5
	l-0.1-0.1l-1.2-2.5L11,16.2l-0.8,0.2l-0.3,0.1l-1.4,0.3L7.9,18H8h0.1l2.3-0.6l1.2,2.5l0.1,0.1c0.5,1,1.7,1.4,2.7,0.9
	c0.7-0.4,1.1-1.1,1.1-1.9C15.5,18.7,15.4,18.4,15.3,18.1z"/>
<path d="M6.1,15l-1-2.6v-0.1C5,12.2,5,12.1,5,12c0-0.6,0.4-1,1-1c0.4,0,0.8,0.2,0.9,0.6l0.5,1.2l0,0L8,11.7l-0.1-0.3v-0.1
	c-0.4-1-1.5-1.6-2.5-1.2C4.5,10.3,4,11.1,4,12c0,0.2,0,0.5,0.1,0.7v0.1l1.3,3.4L6.1,15z"/>
<path d="M5,6c0.6,0,1,0.4,1,1S5.6,8,5,8S4,7.6,4,7S4.4,6,5,6 M5,5C3.9,5,3,5.9,3,7s0.9,2,2,2s2-0.9,2-2S6.1,5,5,5z"/>
</svg>
