<?xml version="1.0" encoding="utf-8"?>
<!-- Generator: Adobe Illustrator 24.2.3, SVG Export Plug-In . SVG Version: 6.00 Build 0)  -->
<svg version="1.1" id="Layer_1" xmlns="http://www.w3.org/2000/svg" xmlns:xlink="http://www.w3.org/1999/xlink" x="0px" y="0px"
	 viewBox="0 0 24 24" style="enable-background:new 0 0 24 24;" xml:space="preserve">
<style type="text/css">
	.st0{fill:none;}
	.st1{fill:#FFFFFF;}
</style>
<path class="st0" d="M0,0h24v24H0V0z"/>
<g>
	<path d="M13.2,3l0.5,2h-3.4l0.5-2H13.2 M13.4,2h-2.8c-0.3,0-0.6,0.2-0.7,0.6L9.2,5.1C9.1,5.5,9.5,6,10,6H14c0.5,0,0.8-0.5,0.7-0.9
		l-0.6-2.5C14.1,2.2,13.8,2,13.4,2L13.4,2z"/>
</g>
<g>
	<path d="M16.7,19L16.7,19l-0.5,2l-8.4,0l-0.5-2H16.7 M16.7,18H7.3c-0.7,0-1.1,0.6-1,1.2l0.5,2c0.1,0.4,0.5,0.8,1,0.8h8.4
		c0.5,0,0.9-0.3,1-0.8l0.5-2C17.8,18.6,17.4,18,16.7,18L16.7,18z"/>
</g>
<g>
	<path class="st1" d="M8,17c-0.6-2.8,0.6-7.1,1.2-9h5.5c0.6,1.9,1.8,6.2,1.2,9h1c0.8-3.7-1.6-10-1.6-10h-1l0,0H9.6l0,0h-1
		c0,0-2.3,6.3-1.6,10H8z"/>
	<path d="M15.4,7h-1l0,0H9.6l0,0h-1c0,0-2.3,6.3-1.6,10h1c-0.6-2.8,0.6-7.1,1.2-9h5.5c0.6,1.9,1.8,6.2,1.2,9h1
		C17.7,13.3,15.4,7,15.4,7L15.4,7z"/>
</g>
</svg>
