<?xml version="1.0" encoding="utf-8"?>
<!-- Generator: Adobe Illustrator 24.2.3, SVG Export Plug-In . SVG Version: 6.00 Build 0)  -->
<svg version="1.1" id="Layer_1" xmlns="http://www.w3.org/2000/svg" xmlns:xlink="http://www.w3.org/1999/xlink" x="0px" y="0px"
	 viewBox="0 0 24 24" style="enable-background:new 0 0 24 24;" xml:space="preserve">
<style type="text/css">
	.st0{fill:none;}
</style>
<path class="st0" d="M0,0h24v24H0V0z"/>
<path d="M21,8c0,2.2-4.6,4-9,4h-0.8c-0.1-0.3-0.2-0.6-0.4-1H12c4.4,0,8-1.8,8-3s-3.6-3-8-3c-1,0-1.9,0-2.7,0l0,0
	C8.9,4.6,8.4,4.2,7.9,4.1C9.1,4,10.6,4,12,4C16.4,4,21,5.8,21,8z"/>
<path d="M5.1,11.2c0.1-0.3,0.2-0.7,0.4-0.9c0,0-1.2-0.1-1.5-2C3.7,7.1,4,5.8,4.9,4.9C4.9,4.9,3,5.4,3,8C2.9,9.4,3.8,10.7,5.1,11.2z"
	/>
<rect x="5.4" y="15.4" transform="matrix(0.5 -0.866 0.866 0.5 -9.1233 16.0146)" width="7.7" height="1"/>
<path d="M17.3,18.1L17.3,18.1l-1.9-3.9l-0.1-0.1C15,13.4,14.3,13,13.5,13c-0.2,0-0.3,0-0.5,0.1h-0.1l-0.3,0.1l-0.7,1.2
	c0.1,0,1.5-0.4,1.6-0.4c0.4,0,0.7,0.2,0.9,0.5l0.1,0.1l1.9,3.8v0.1c0.1,0.1,0.1,0.3,0.1,0.4c0,0.6-0.4,1-1,1c-0.4,0-0.7-0.2-0.9-0.5
	l-0.1-0.1l-1.2-2.5L13,16.2l-0.8,0.2l-0.3,0.1l-1.4,0.3L9.9,18H10h0.1l2.3-0.6l1.2,2.5l0.1,0.1c0.5,1,1.7,1.4,2.7,0.9
	c0.7-0.4,1.1-1.1,1.1-1.9C17.5,18.7,17.4,18.4,17.3,18.1z"/>
<path d="M8.1,15l-1-2.6v-0.1C7,12.2,7,12.1,7,12c0-0.6,0.4-1,1-1c0.4,0,0.8,0.2,0.9,0.6l0.5,1.2l0,0l0.6-1.1l-0.1-0.3v-0.1
	c-0.4-1-1.5-1.6-2.5-1.2C6.5,10.3,6,11.1,6,12c0,0.2,0,0.5,0.1,0.7v0.1l1.3,3.4L8.1,15z"/>
<path d="M7,6c0.6,0,1,0.4,1,1S7.6,8,7,8S6,7.6,6,7S6.4,6,7,6 M7,5C5.9,5,5,5.9,5,7s0.9,2,2,2s2-0.9,2-2S8.1,5,7,5z"/>
</svg>
