<?xml version="1.0" encoding="utf-8"?>
<!-- Generator: Adobe Illustrator 24.2.3, SVG Export Plug-In . SVG Version: 6.00 Build 0)  -->
<svg version="1.1" id="Layer_1" xmlns="http://www.w3.org/2000/svg" xmlns:xlink="http://www.w3.org/1999/xlink" x="0px" y="0px"
	 viewBox="0 0 24 24" style="enable-background:new 0 0 24 24;" xml:space="preserve">
<style type="text/css">
	.st0{fill:none;}
	.st1{fill:#FFFFFF;}
</style>
<path class="st0" d="M0,0h24v24H0V0z"/>
<g>
	<path class="st0" d="M6.5,5.5c-0.1,0-0.2-0.1-0.2-0.1s-0.1-0.1,0-0.2l0.6-2.5c0-0.1,0.1-0.2,0.2-0.2h2.8c0.1,0,0.2,0.1,0.2,0.2
		l0.6,2.5c0,0.1,0,0.2,0,0.2s-0.1,0.1-0.2,0.1H6.5z"/>
	<path d="M9.7,3l0.5,2H6.8l0.5-2H9.7 M9.9,2H7.1C6.7,2,6.4,2.2,6.4,2.6L5.7,5.1C5.6,5.5,6,6,6.5,6h4.1c0.5,0,0.8-0.5,0.7-0.9
		l-0.6-2.5C10.6,2.2,10.3,2,9.9,2L9.9,2z"/>
</g>
<g>
	<path class="st0" d="M13.5,5.5c-0.1,0-0.2-0.1-0.2-0.1s-0.1-0.1,0-0.2l0.6-2.5c0-0.1,0.1-0.2,0.2-0.2h2.8c0.1,0,0.2,0.1,0.2,0.2
		l0.6,2.5c0,0.1,0,0.2,0,0.2s-0.1,0.1-0.2,0.1H13.5z"/>
	<path d="M16.7,3l0.5,2h-3.4l0.5-2H16.7 M16.9,2h-2.8c-0.3,0-0.6,0.2-0.7,0.6l-0.6,2.5C12.6,5.5,13,6,13.5,6h4.1
		c0.5,0,0.8-0.5,0.7-0.9l-0.6-2.5C17.6,2.2,17.3,2,16.9,2L16.9,2z"/>
</g>
<g>
	<path class="st0" d="M3.8,21.5c-0.2,0-0.4-0.2-0.5-0.4l-0.5-2c0-0.2,0-0.3,0.1-0.4s0.2-0.2,0.4-0.2h17.4c0.2,0,0.3,0.1,0.4,0.2
		s0.1,0.3,0.1,0.4l-0.5,2c-0.1,0.2-0.3,0.4-0.5,0.4H3.8z"/>
	<path d="M20.7,19L20.7,19l-0.5,2H3.8l-0.5-2H20.7 M20.7,18H3.3c-0.7,0-1.1,0.6-1,1.2l0.5,2c0.1,0.4,0.5,0.8,1,0.8h16.4
		c0.5,0,0.9-0.3,1-0.8l0.5-2C21.8,18.6,21.4,18,20.7,18L20.7,18z"/>
</g>
<g>
	<path class="st1" d="M4.6,15.8c0-0.2,0-0.4,0-0.7C4.6,15.4,4.6,15.6,4.6,15.8z"/>
	<path d="M18.3,7H5.9C5.4,7,5,7.4,4.9,7.9c-0.3,2-1,6.9-0.7,9.1h1c-0.3-2.2,0.3-6.9,0.6-9h12.4c0.3,2.1,0.9,6.8,0.6,9h1
		c0.3-2.3-0.4-7.2-0.7-9.1C19.2,7.4,18.8,7,18.3,7L18.3,7z"/>
</g>
</svg>
