<?xml version="1.0" encoding="utf-8"?>
<!-- Generator: Adobe Illustrator 24.2.3, SVG Export Plug-In . SVG Version: 6.00 Build 0)  -->
<svg version="1.1" id="Layer_1" xmlns="http://www.w3.org/2000/svg" xmlns:xlink="http://www.w3.org/1999/xlink" x="0px" y="0px"
	 viewBox="0 0 24 24" style="enable-background:new 0 0 24 24;" xml:space="preserve">
<style type="text/css">
	.st0{fill:none;}
</style>
<path class="st0" d="M0,0h24v24H0V0z"/>
<polygon points="20,2 20,3 21,3 21,7 22,7 22,3 22,2 "/>
<polygon points="17,2 16,2 16,7 17,7 19,7 19,6 17,6 "/>
<path d="M10,14H2v5h1v3h1v-3h4v3h1v-3h1V14z M9,18H3v-3h6V18z"/>
<rect x="4" y="16" width="4" height="1"/>
<path d="M4,8v2h4V8h1V5H8V2H7v4h1v1H4V6h1V2H4v3H3v3H4z M7,8v1H5V8H7z"/>
</svg>
