<?xml version="1.0" encoding="utf-8"?>
<!-- Generator: Adobe Illustrator 24.2.3, SVG Export Plug-In . SVG Version: 6.00 Build 0)  -->
<svg version="1.1" id="Layer_1" xmlns="http://www.w3.org/2000/svg" xmlns:xlink="http://www.w3.org/1999/xlink" x="0px" y="0px"
	 viewBox="0 0 24 24" style="enable-background:new 0 0 24 24;" xml:space="preserve">
<style type="text/css">
	.st0{fill:none;}
</style>
<path class="st0" d="M0,0h24v24H0V0z"/>
<path d="M4.2,8H2v1h2v1H2.8C2.3,10,2,10.3,2,10.7c0,0,0,0,0,0V13h3v-1H3v-1h1.2C4.7,11,5,10.7,5,10.2V8.8C5,8.3,4.7,8,4.2,8
	C4.3,8,4.3,8,4.2,8z"/>
<path d="M2,2.8v3.5C2,6.7,2.3,7,2.8,7H5V6H3V3h2V2H2.8C2.3,2,2,2.3,2,2.8C2,2.7,2,2.7,2,2.8z"/>
<path d="M16,14H8v5h1v3h1v-3h4v3h1v-3h1V14z M15,18H9v-3h6V18z"/>
<rect x="10" y="16" width="4" height="1"/>
<path d="M10,8v2h4V8h1V5h-1V2h-1v4h1v1h-4V6h1V2h-1v3H9v3H10z M13,8v1h-2V8H13z"/>
</svg>
