<?xml version="1.0" encoding="utf-8"?>
<!-- Generator: Adobe Illustrator 24.2.3, SVG Export Plug-In . SVG Version: 6.00 Build 0)  -->
<svg version="1.1" id="Layer_1" xmlns="http://www.w3.org/2000/svg" xmlns:xlink="http://www.w3.org/1999/xlink" x="0px" y="0px"
	 viewBox="0 0 24 24" style="enable-background:new 0 0 24 24;" xml:space="preserve">
<style type="text/css">
	.st0{fill:none;}
</style>
<path class="st0" d="M0,0h24v24H0V0z"/>
<polygon points="16,2 15,2 15,7 16,7 18,7 18,6 16,6 16,2 "/>
<path d="M21.2,2H19v1h2v1h-1.2C19.3,4,19,4.3,19,4.7c0,0,0,0,0,0V7h3V6h-2V5h1.2C21.7,5,22,4.7,22,4.2V2.8C22,2.3,21.7,2,21.2,2
	C21.3,2,21.3,2,21.2,2z"/>
<path d="M10,14H2v5h1v3h1v-3h4v3h1v-3h1V14z M9,18H3v-3h6V18z"/>
<rect x="4" y="16" width="4" height="1"/>
<path d="M4,8v2h4V8h1V5H8V2H7v4h1v1H4V6h1V2H4v3H3v3H4z M7,8v1H5V8H7z"/>
</svg>
