<?xml version="1.0" encoding="utf-8"?>
<!-- Generator: Adobe Illustrator 24.2.3, SVG Export Plug-In . SVG Version: 6.00 Build 0)  -->
<svg version="1.1" id="Layer_1" xmlns="http://www.w3.org/2000/svg" xmlns:xlink="http://www.w3.org/1999/xlink" x="0px" y="0px"
	 viewBox="0 0 24 24" style="enable-background:new 0 0 24 24;" xml:space="preserve">
<style type="text/css">
	.st0{fill:none;}
</style>
<path class="st0" d="M0,0h24v24H0V0z"/>
<path d="M8.2,2H6v1h2v1H6.8C6.3,4,6,4.3,6,4.7c0,0,0,0,0,0V7h3V6H7V5h1.2C8.7,5,9,4.7,9,4.2V2.8C9,2.3,8.7,2,8.2,2
	C8.3,2,8.3,2,8.2,2z"/>
<path d="M4.2,2H2v5h1V5l1,2h1L4,5h0.2C4.7,5,5,4.7,5,4.2V2.8C5,2.3,4.7,2,4.2,2z M4,4H3V3h1V4z"/>
<path d="M22,14h-8v5h1v3h1v-3h4v3h1v-3h1V14z M21,18h-6v-3h6V18z"/>
<rect x="16" y="16" width="4" height="1"/>
<path d="M16,8v2h4V8h1V5h-1V2h-1v4h1v1h-4V6h1V2h-1v3h-1v3H16z M19,8v1h-2V8H19z"/>
</svg>
