<?xml version="1.0" encoding="utf-8"?>
<!-- Generator: Adobe Illustrator 24.2.3, SVG Export Plug-In . SVG Version: 6.00 Build 0)  -->
<svg version="1.1" id="Layer_1" xmlns="http://www.w3.org/2000/svg" xmlns:xlink="http://www.w3.org/1999/xlink" x="0px" y="0px"
	 viewBox="0 0 24 24" style="enable-background:new 0 0 24 24;" xml:space="preserve">
<style type="text/css">
	.st0{fill:none;}
</style>
<path class="st0" d="M0,0h24v24H0V0z"/>
<rect x="8.5" y="13" width="1" height="4"/>
<rect x="11.5" y="13" width="1" height="4"/>
<rect x="14.5" y="13" width="1" height="4"/>
<path d="M22,14v-1h-3l-3-3H8l-3,3H2v1h3v2H2v1h3l3,3h8l3-3h3v-1h-3v-2H22z M15.6,19H8.4L6,16.6v-3.2L8.4,11h7.2l2.4,2.4v3.2L15.6,19
	z"/>
<path d="M8,5.1L8,5.1c0.1,0.1,0.2,0.3,0.3,0.4c0.2,0.3,0.2,0.7,0.2,1.1c0,0.2-0.1,0.4-0.2,0.6C8.2,7.8,8.3,8.3,8.7,8.8
	C8.7,8.8,8.8,9,8.9,9h1C9.4,8.4,9.2,7.7,9.4,7c0.1-0.7-0.1-1.5-0.5-2h-1C7.9,5,8,5.1,8,5.1z"/>
<path d="M11,5.1L11,5.1c0.1,0.1,0.2,0.3,0.3,0.4c0.2,0.3,0.2,0.7,0.2,1.1c0,0.2-0.1,0.4-0.2,0.6c-0.1,0.5,0.1,1.1,0.4,1.5
	c0,0.1,0.1,0.2,0.2,0.2h1c-0.5-0.5-0.7-1.3-0.5-2c0.1-0.7-0.1-1.5-0.5-2h-1C10.9,5,11,5.1,11,5.1z"/>
<path d="M14,5.1L14,5.1c0.1,0.1,0.2,0.3,0.3,0.4c0.2,0.3,0.2,0.7,0.2,1.1c0,0.2-0.1,0.4-0.2,0.6c-0.1,0.5,0.1,1.1,0.4,1.5
	c0,0.1,0.1,0.2,0.2,0.2h1c-0.5-0.5-0.7-1.3-0.5-2c0.1-0.7-0.1-1.5-0.5-2h-1C13.9,5,14,5.1,14,5.1z"/>
</svg>
