<?xml version="1.0" encoding="utf-8"?>
<!-- Generator: Adobe Illustrator 24.2.3, SVG Export Plug-In . SVG Version: 6.00 Build 0)  -->
<svg version="1.1" id="Layer_1" xmlns="http://www.w3.org/2000/svg" xmlns:xlink="http://www.w3.org/1999/xlink" x="0px" y="0px"
	 viewBox="0 0 24 24" style="enable-background:new 0 0 24 24;" xml:space="preserve">
<style type="text/css">
	.st0{fill:none;}
	.st1{fill:#FFFFFF;}
</style>
<path class="st0" d="M0,0h24v24H0V0z"/>
<path d="M6.5,11C7.3,11,8,11.7,8,12.5S7.3,14,6.5,14S5,13.3,5,12.5S5.7,11,6.5,11 M6.5,10C5.1,10,4,11.1,4,12.5S5.1,15,6.5,15
	S9,13.9,9,12.5S7.9,10,6.5,10z"/>
<circle class="st1" cx="6.5" cy="12.5" r="0.5"/>
<path d="M6.5,12C6.2,12,6,12.2,6,12.5S6.2,13,6.5,13S7,12.8,7,12.5S6.8,12,6.5,12z"/>
<path d="M16.5,11h-2l0.9,0.5c-0.1,0.1-0.2,0.3-0.3,0.5H14v1h1.1c0.1,0.2,0.2,0.3,0.3,0.5L14.5,14h2c0.8,0,1.5-0.7,1.5-1.5
	S17.3,11,16.5,11z M16.5,13c-0.3,0-0.5-0.2-0.5-0.5s0.2-0.5,0.5-0.5s0.5,0.2,0.5,0.5S16.8,13,16.5,13z"/>
<path d="M16.5,9c-1.4,0-2.6,0.8-3.2,2l0,0c0.2-0.4,0.4-0.7,0.7-1h2.4c1.4,0,2.5,1.1,2.5,2.5S17.9,15,16.5,15h-2.4
	c-0.3-0.3-0.5-0.6-0.7-1l0,0c0.8,1.7,2.9,2.5,4.7,1.6s2.5-2.9,1.6-4.7C19.1,9.8,17.8,9,16.5,9z"/>
<path d="M14.5,14c-0.7-0.9-0.7-2.1,0-3h-1.2c0,0.1,0,0.1-0.1,0.1c-0.4,0.9-0.4,2,0.1,2.9H14.5z"/>
<path d="M13.4,14H6.5C5.7,14,5,13.3,5,12.5S5.7,11,6.5,11h6.9c0.2-0.4,0.4-0.7,0.7-1H6.5C5.1,10,4,11.1,4,12.5S5.1,15,6.5,15h7.6
	C13.8,14.7,13.5,14.4,13.4,14z"/>
<path d="M16.5,8C19,8,21,10,21,12.5S19,17,16.5,17c-0.2,0-0.3,0-0.5,0l-9-0.9v0L6.1,16C4.4,15.8,3,14.3,3,12.5S4.4,9.2,6.1,9L7,8.9
	L16,8C16.2,8,16.3,8,16.5,8 M16.5,7c-0.2,0-0.4,0-0.6,0v0l0,0c0,0,0,0,0,0L6,8v0c-2.3,0.2-4,2.1-4,4.5s1.8,4.2,4,4.5v0l9.9,1
	c0,0,0,0,0,0l0,0v0c0.2,0,0.4,0,0.6,0c3,0,5.5-2.5,5.5-5.5C22,9.5,19.5,7,16.5,7L16.5,7z"/>
</svg>
