<?xml version="1.0" encoding="utf-8"?>
<!-- Generator: Adobe Illustrator 24.2.3, SVG Export Plug-In . SVG Version: 6.00 Build 0)  -->
<svg version="1.1" id="Layer_1" xmlns="http://www.w3.org/2000/svg" xmlns:xlink="http://www.w3.org/1999/xlink" x="0px" y="0px"
	 viewBox="0 0 24 24" style="enable-background:new 0 0 24 24;" xml:space="preserve">
<style type="text/css">
	.st0{fill:none;}
</style>
<path class="st0" d="M0,0h24v24H0V0z"/>
<path d="M3,6l2.4,1.8L5.7,8h9.9l1.7,1.7l0.3,0.3H21v2h-3v3.6L14.6,19H6v-3.9l-1.6,1l-1.4,1V6 M2,4v15l3-2v3h10l4-4v-3h3V9h-4l-2-2H6
	L2,4z"/>
<path d="M16,13.7l1-0.1l-0.1-1l-1,0.1c-0.1-0.3-0.3-0.6-0.5-0.8L16,11l-0.8-0.6l-0.6,0.8C14.3,11.1,14,11,13.6,11l-0.1-1l-1,0.1
	l0.1,1.1c-0.3,0.1-0.6,0.3-0.8,0.5L11,11l-0.6,0.8l0.8,0.6C11.1,12.7,11,13,11,13.4l-1,0.1l0.1,1l1-0.1c0.1,0.3,0.3,0.6,0.5,0.8
	L11,16l0.8,0.6l0.6-0.8c0.3,0.1,0.6,0.2,0.9,0.2l0.1,1l1-0.1l-0.1-1.1c0.3-0.1,0.6-0.3,0.8-0.5L16,16l0.6-0.8l-0.8-0.6
	C15.9,14.3,16,14,16,13.7z M14.7,14.4L14.7,14.4c-0.5,0.7-1.4,0.8-2.1,0.3l0,0c-0.7-0.5-0.8-1.4-0.3-2.1l0,0
	c0.3-0.4,0.7-0.6,1.2-0.6c0.3,0,0.6,0.1,0.9,0.3l0,0C15.1,12.8,15.2,13.7,14.7,14.4L14.7,14.4z"/>
<path d="M9,11.9c0-0.1,0-0.3-0.1-0.4c0-0.1-0.1-0.3-0.1-0.4l0.8-0.8L8.9,9.6l-0.7,0.7C7.8,10.1,7.4,10,7,10L6.8,9l-1,0.2l0.3,1
	c-0.4,0.2-0.6,0.5-0.8,0.9l-1-0.3l-0.3,1L5,12.1c0,0.1,0,0.3,0.1,0.4c0,0.1,0.1,0.3,0.1,0.4l-0.8,0.8l0.7,0.7l0.7-0.7
	C6.2,13.9,6.6,14,7,14l0.3,1l1-0.2l-0.3-1c0.4-0.2,0.6-0.5,0.8-0.9l1,0.3l0.3-1L9,11.9z M7.2,13H7c-0.6,0.1-1.1-0.3-1.1-0.9
	s0.3-1.1,0.9-1.1H7c0.6-0.1,1.1,0.3,1.1,0.9S7.8,12.9,7.2,13z"/>
</svg>
